<?xml version="1.0" standalone="no"?>
<!DOCTYPE svg PUBLIC "-//W3C//DTD SVG 20010904//EN"
 "http://www.w3.org/TR/2001/REC-SVG-20010904/DTD/svg10.dtd">
<svg version="1.0" xmlns="http://www.w3.org/2000/svg"
 width="300.000000pt" height="300.000000pt" viewBox="0 0 300.000000 300.000000"
 preserveAspectRatio="xMidYMid meet">
<metadata>
Created by potrace 1.14, written by Peter Selinger 2001-2017
</metadata>
<g transform="translate(0.000000,300.000000) scale(0.100000,-0.100000)"
fill="#000000" stroke="none">
<path d="M1139 2873 c-10 -11 -15 -54 -16 -152 -1 -75 -2 -139 -2 -143 -1 -3
-30 -41 -64 -85 -114 -140 -251 -248 -355 -279 -108 -33 -120 -72 -44 -143 27
-26 62 -53 78 -61 16 -8 31 -18 34 -21 7 -8 121 -47 157 -54 15 -2 39 -7 53
-10 14 -3 43 -8 65 -11 75 -9 75 -9 61 -59 -27 -89 -60 -123 -271 -279 -32
-24 -127 -98 -154 -120 -103 -84 -216 -228 -225 -288 -1 -7 -4 -17 -7 -23 -8
-14 -3 -86 9 -115 50 -128 295 -174 557 -104 33 9 65 17 70 18 6 2 21 8 35 13
14 6 28 9 33 6 4 -2 7 1 7 7 0 6 5 8 10 5 6 -3 10 -1 10 6 0 7 3 9 6 6 8 -7
187 84 221 112 26 22 37 118 37 326 0 234 -29 345 -113 433 -58 62 -91 74
-281 107 -158 27 -253 53 -298 83 l-26 17 44 7 c71 12 298 10 380 -2 75 -12
198 -50 222 -69 7 -5 32 -26 56 -47 l42 -36 2 28 c1 16 1 46 1 67 -1 20 3 37
7 37 12 0 66 -64 94 -112 45 -78 67 -155 70 -244 1 -54 18 -48 48 17 13 26 27
48 32 49 5 0 6 -72 3 -162 -6 -163 -8 -184 -22 -268 l-7 -45 19 25 c11 14 23
32 26 40 4 8 16 29 27 45 17 27 51 91 55 105 8 32 30 88 38 98 5 6 7 12 3 12
-3 0 -1 11 4 26 16 42 23 104 23 214 0 103 -3 132 -22 198 -5 17 -8 32 -6 32
15 0 -101 235 -142 288 -91 117 -116 143 -253 265 -8 8 -37 29 -65 47 -27 19
-89 74 -136 122 -47 48 -93 88 -101 88 -9 0 -22 -7 -29 -17z m-12 -576 c11
-12 -6 -35 -30 -41 -32 -8 -77 9 -77 28 0 8 8 17 18 19 22 6 81 2 89 -6z"/>
<path d="M1925 1186 c-159 -42 -287 -99 -423 -189 -110 -73 -355 -193 -437
-214 -5 -1 -28 -7 -50 -13 -139 -39 -283 -50 -373 -30 -95 22 -195 93 -256
180 -17 25 -17 24 -11 -45 5 -75 12 -118 22 -150 4 -11 7 -24 8 -30 6 -72 81
-238 141 -312 81 -100 150 -149 265 -189 65 -23 90 -27 204 -27 72 0 157 5
190 12 33 7 69 14 80 16 11 2 20 4 20 5 0 1 7 3 15 5 33 7 179 59 245 87 39
16 78 30 88 31 9 1 17 4 17 7 0 3 21 12 48 19 26 8 52 17 57 20 6 3 13 6 18 7
4 1 9 3 12 4 3 1 10 4 15 5 6 1 11 3 13 5 2 1 12 4 52 13 88 21 122 30 135 34
29 10 106 17 190 17 96 -1 160 -24 195 -71 26 -37 31 -124 11 -193 l-16 -55
27 31 c96 106 159 222 188 343 56 232 -47 520 -226 636 -105 68 -295 85 -464
41z"/>
</g>
</svg>
