<svg width="50" height="53" viewBox="0 0 50 53" fill="none" xmlns="http://www.w3.org/2000/svg">
<path fill-rule="evenodd" clip-rule="evenodd" d="M42.7153 7.70167C40.404 5.2505 37.6582 3.30813 34.6358 1.98638C31.6135 0.66462 28.3743 -0.0104183 25.1049 0.000121544C11.3839 0.000121544 0.214285 11.7808 0.208705 26.2635C0.202635 30.8751 1.34943 35.406 3.53236 39.3951L0 53L13.1975 49.348C16.8507 51.4458 20.9401 52.5437 25.0948 52.5422H25.1049C38.8247 52.5422 49.9932 40.7603 49.9999 26.2788C50.0082 22.825 49.3685 19.404 48.1179 16.2147C46.8673 13.0254 45.0308 10.1316 42.7153 7.70167ZM25.1049 48.1093H25.0959C21.3921 48.1105 17.7557 47.0598 14.5647 45.0666L13.8091 44.5934L5.97767 46.7607L8.06807 38.7054L7.57588 37.8773C5.50489 34.4018 4.40764 30.3742 4.41182 26.2635C4.41182 14.2285 13.6986 4.4365 25.1127 4.4365C30.5881 4.42613 35.8432 6.72156 39.7221 10.8179C43.6011 14.9143 45.7862 20.4761 45.7968 26.28C45.7923 38.3162 36.51 48.1093 25.1049 48.1093ZM36.4542 31.761C35.8325 31.4321 32.7712 29.8445 32.2042 29.6256C31.6372 29.4068 31.2187 29.2968 30.8046 29.9545C30.3906 30.6123 29.1975 32.084 28.8348 32.5276C28.4721 32.9713 28.1093 33.0198 27.4877 32.6909C26.866 32.362 24.8605 31.6699 22.4843 29.434C20.635 27.6937 19.3872 25.5454 19.0245 24.8888C18.6618 24.2322 18.9855 23.8761 19.2968 23.5496C19.577 23.255 19.9185 22.783 20.2299 22.3997C20.5413 22.0164 20.6451 21.7419 20.8515 21.3042C21.058 20.8665 20.9553 20.4832 20.8002 20.1555C20.6451 19.8278 19.4006 16.5969 18.8828 15.2825C18.3772 14.0025 17.8649 14.1764 17.4832 14.1563C17.1205 14.1374 16.702 14.1326 16.2902 14.1326C15.9753 14.1413 15.6656 14.2187 15.3802 14.36C15.0949 14.5012 14.84 14.7033 14.6317 14.9537C14.0614 15.6114 12.4542 17.2014 12.4542 20.4287C12.4542 23.656 14.6864 26.7793 14.9944 27.217C15.3024 27.6547 19.3805 34.2832 25.6205 37.1261C26.7792 37.652 27.9631 38.1133 29.1674 38.5078C30.6573 39.0071 32.0133 38.9373 33.0848 38.7681C34.2801 38.58 36.7678 37.1805 37.2845 35.6473C37.8013 34.1141 37.8024 32.8009 37.6473 32.5276C37.4921 32.2543 37.077 32.0887 36.4542 31.761Z" fill="#4CC712"/>
</svg>
