<svg width="58" height="62" viewBox="0 0 58 62" fill="none" xmlns="http://www.w3.org/2000/svg">
<path d="M4.61755 23.5073L52.7288 4.06778C52.9024 3.99692 53.0914 3.98121 53.2732 4.02258C53.4549 4.06394 53.6215 4.1606 53.7529 4.30088C53.8843 4.44115 53.9749 4.61905 54.0136 4.81307C54.0524 5.00709 54.0377 5.20894 53.9713 5.39423L35.7624 56.7571C35.6899 56.9521 35.5633 57.1188 35.3995 57.2348C35.2357 57.3507 35.0425 57.4103 34.846 57.4055C34.6496 57.4008 34.4592 57.3319 34.3004 57.2082C34.1417 57.0844 34.0223 56.9118 33.9582 56.7134L25.8515 35.3863C25.7569 35.084 25.5979 34.8094 25.3868 34.5841C25.1758 34.3588 24.9185 34.189 24.6354 34.0881L4.65845 25.4412C4.47025 25.3743 4.30601 25.247 4.18818 25.0767C4.07036 24.9063 4.00472 24.7013 4.00025 24.4896C3.99577 24.2779 4.05267 24.0699 4.16318 23.8941C4.27368 23.7183 4.43238 23.5832 4.61755 23.5073Z" stroke="white" stroke-opacity="0.8" stroke-width="7.55464" stroke-linecap="round" stroke-linejoin="round"/>
<path d="M53.5563 4.51074L25.5315 34.4296" stroke="white" stroke-opacity="0.8" stroke-width="7.55464" stroke-linecap="round" stroke-linejoin="round"/>
</svg>
