<svg width="45" height="54" viewBox="0 0 45 54" fill="none" xmlns="http://www.w3.org/2000/svg">
<path d="M38.6622 11.4216C38.3219 11.2353 37.9907 11.0311 37.6697 10.8097C36.7364 10.156 35.8806 9.38577 35.1209 8.51557C33.22 6.21145 32.5101 3.87395 32.2486 2.23737H32.2591C32.0407 0.878927 32.131 0 32.1446 0H23.4868V35.4664C23.4868 35.9425 23.4868 36.4131 23.4679 36.8782C23.4679 36.9361 23.4626 36.9895 23.4595 37.0518C23.4595 37.0774 23.4595 37.104 23.4542 37.1308V37.1508C23.363 38.4233 22.9779 39.6526 22.3329 40.7304C21.688 41.8083 20.8028 42.7018 19.7554 43.3322C18.6638 43.9901 17.4291 44.3352 16.1732 44.3335C12.1394 44.3335 8.87012 40.8489 8.87012 36.5455C8.87012 32.2421 12.1394 28.7576 16.1732 28.7576C16.9368 28.7568 17.6957 28.8841 18.4217 29.1347L18.4322 19.7959C16.2282 19.4943 13.9891 19.6798 11.8562 20.3409C9.72332 21.0019 7.74288 22.124 6.03983 23.6364C4.54757 25.01 3.29301 26.6489 2.33263 28.4794C1.96716 29.147 0.588246 31.8294 0.421264 36.1828C0.316244 38.6539 1.01673 41.2139 1.35069 42.2719V42.2942C1.56073 42.9172 2.37463 45.0433 3.70104 46.8357C4.7706 48.2734 6.03425 49.5364 7.4513 50.5839V50.5616L7.4723 50.5839C11.6636 53.6012 16.3108 53.4031 16.3108 53.4031C17.1152 53.3686 19.81 53.4031 22.8703 51.8667C26.2646 50.1633 28.1969 47.6256 28.1969 47.6256C29.4314 46.1092 30.4131 44.3812 31.0997 42.5156C31.8831 40.3338 32.1446 37.7171 32.1446 36.6713V17.8556C32.2497 17.9223 33.6485 18.9025 33.6485 18.9025C33.6485 18.9025 35.6638 20.2709 38.8081 21.1621C41.064 21.7963 44.1033 21.9298 44.1033 21.9298V12.8245C43.0383 12.9469 40.876 12.5909 38.6622 11.4216Z" fill="black"/>
</svg>
